<?xml version="1.0" encoding="UTF-8"?>
<svg width="13px" height="13px" viewBox="0 0 13 13" version="1.1" xmlns="http://www.w3.org/2000/svg" xmlns:xlink="http://www.w3.org/1999/xlink">
    <!-- Generator: sketchtool 52.5 (67469) - http://www.bohemiancoding.com/sketch -->
    <title>A647E5D4-63E3-4C2F-BC53-BF7FF0B78998</title>
    <desc>Created with sketchtool.</desc>
    <g id="Original-Copy" stroke="none" stroke-width="1" fill="none" fill-rule="evenodd">
        <g id="Tasks" transform="translate(-30.000000, -145.000000)" fill="#000000">
            <g id="clientmeetings" transform="translate(0.000000, 80.000000)">
                <g id="icontime" transform="translate(30.000000, 65.000000)">
                    <g id="clock-(1)">
                        <path d="M6.37694071,0 C2.86075763,0 0,2.75123982 0,6.13281357 C0,9.51438732 2.86075763,12.2656271 6.37694071,12.2656271 C9.8931238,12.2656271 12.7538814,9.51438732 12.7538814,6.13281357 C12.7538814,2.75123982 9.8931238,0 6.37694071,0 Z M6.37694071,11.499022 C3.30017262,11.499022 0.797121186,9.09179436 0.797121186,6.13281357 C0.797121186,3.17383277 3.30017262,0.766605154 6.37694071,0.766605154 C9.45370881,0.766605154 11.9567602,3.17383277 11.9567602,6.13281357 C11.9567602,9.09179436 9.45370881,11.499022 6.37694071,11.499022 Z" id="Shape" fill-rule="nonzero"></path>
                        <polygon id="Path" points="6.77550131 2.29981546 5.97838012 2.29981546 5.97838012 6.29152457 8.4864952 8.70362199 9.05008457 8.1616084 6.77550131 5.97410256"></polygon>
                    </g>
                </g>
            </g>
        </g>
    </g>
</svg>