<?xml version="1.0" encoding="UTF-8"?>
<svg width="76px" height="71px" viewBox="0 0 76 71" version="1.1" xmlns="http://www.w3.org/2000/svg" xmlns:xlink="http://www.w3.org/1999/xlink">
    <!-- Generator: sketchtool 52.5 (67469) - http://www.bohemiancoding.com/sketch -->
    <title>CCDE143B-A9E7-4A12-9E0F-32575AE4B697</title>
    <desc>Created with sketchtool.</desc>
    <g id="Original-Copy" stroke="none" stroke-width="1" fill="none" fill-rule="evenodd">
        <g id="Home" transform="translate(-274.000000, -113.000000)">
            <g id="tasks" transform="translate(274.000000, 113.000000)">
                <path d="M48.1497323,28 C47.8002881,28 47.4550057,27.8520578 47.2295243,27.5716736 C46.8490151,27.098923 46.9523174,26.4285471 47.4600594,26.074261 L60.1622297,17.213647 C60.6699717,16.8594993 61.3901151,16.955544 61.7704757,17.4282946 C62.1509849,17.9010452 62.0476826,18.5714211 61.5399406,18.9257072 L48.8377703,27.7863212 C48.631017,27.9303883 48.3893342,28 48.1497323,28 Z" id="Path" fill="#78C2A4"></path>
                <path d="M16.1423682,56 C15.8347148,56 15.5280957,55.88841 15.302897,55.6681666 C14.875108,55.2495705 14.9039228,54.5968491 15.3673239,54.2102885 L26.0831787,45.2736106 C26.5468753,44.8871835 27.2693141,44.9132123 27.697103,45.3318083 C28.124892,45.7504043 28.0960772,46.4031258 27.6326761,46.7896864 L16.9168213,55.7263642 C16.69709,55.9095 16.4194335,56 16.1423682,56 Z" id="Path" fill="#698ED5"></path>
                <path d="M26.8384943,27 C26.5679501,27 26.2960538,26.9128909 26.0761333,26.7353329 L11.3982434,14.8864033 C10.9149891,14.496082 10.8643654,13.8167421 11.2857294,13.3689511 C11.706793,12.92116 12.4401618,12.874405 12.9238667,13.2647262 L27.6017566,25.1136559 C28.0850109,25.503838 28.1356346,26.1833171 27.7142706,26.6311081 C27.4845859,26.8751807 27.1623663,27 26.8384943,27 Z" id="Path" fill="#FFD064"></path>
                <path d="M58.820639,57 C58.5131229,57 58.2062173,56.8923356 57.9748553,56.6776953 L47.3338824,46.8058927 C46.8797048,46.3845974 46.8902351,45.710938 47.3572323,45.3012076 C47.8242295,44.8914773 48.5709671,44.9009771 49.0251447,45.3222724 L59.6661176,55.194075 C60.1202952,55.6153703 60.1097649,56.2890298 59.6427677,56.6987601 C59.4136949,56.8999079 59.1170144,57 58.820639,57 Z" id="Path" fill="#E29375"></path>
                <g id="Group">
                    <path d="M19.7114539,15.661812 C14.2102171,15.9816752 8.70898026,15.9816752 3.20774342,15.661812 C1.67476316,15.5726496 0.445322368,14.4936752 0.295519737,13.1120684 C-0.077625,9.67124786 -0.077625,6.23042735 0.295519737,2.78960684 C0.445322368,1.408 1.67491447,0.329025641 3.20774342,0.239863248 C8.70898026,-0.08 14.2102171,-0.08 19.7114539,0.239863248 C21.2444342,0.329025641 22.473875,1.408 22.6236776,2.78960684 C22.9968224,6.23042735 22.9968224,9.67124786 22.6236776,13.1122051 C22.473875,14.493812 21.2442829,15.5727863 19.7114539,15.661812 Z" id="Path" fill="#F6E266"></path>
                    <g transform="translate(3.934211, 4.786325)" fill="#2B4D66" id="Path">
                        <path d="M13.8068092,2.16533333 L1.24411842,2.16533333 C0.598151316,2.16533333 0.0745986842,1.69217094 0.0745986842,1.10837607 C0.0745986842,0.524581197 0.598151316,0.0514188034 1.24411842,0.0514188034 L13.8068092,0.0514188034 C14.4527763,0.0514188034 14.9763289,0.524581197 14.9763289,1.10837607 C14.9763289,1.69217094 14.4527763,2.16533333 13.8068092,2.16533333 Z"></path>
                        <path d="M8.58777632,6.27760684 L1.24411842,6.27760684 C0.598151316,6.27760684 0.0745986842,5.80444444 0.0745986842,5.22064957 C0.0745986842,4.6368547 0.598151316,4.16369231 1.24411842,4.16369231 L8.58792763,4.16369231 C9.23389474,4.16369231 9.75744737,4.6368547 9.75744737,5.22064957 C9.75729605,5.80444444 9.23374342,6.27760684 8.58777632,6.27760684 Z"></path>
                    </g>
                </g>
                <g id="Group" transform="translate(53.000000, 5.000000)">
                    <path d="M19.7922566,15.6738462 C14.2910197,15.9937094 8.78978289,15.9937094 3.28854605,15.6738462 C1.75556579,15.5846838 0.526125,14.5057094 0.376322368,13.1241026 C0.00317763158,9.68328205 0.00317763158,6.24246154 0.376322368,2.80164103 C0.526125,1.42003419 1.75571711,0.341059829 3.28854605,0.251897436 C8.78978289,-0.067965812 14.2910197,-0.067965812 19.7922566,0.251897436 C21.3252368,0.341059829 22.5546776,1.42003419 22.7044803,2.80164103 C23.077625,6.24246154 23.077625,9.68328205 22.7044803,13.1242393 C22.5546776,14.5057094 21.3250855,15.5848205 19.7922566,15.6738462 Z" id="Path" fill="#95D6A4"></path>
                    <g transform="translate(4.085526, 4.786325)" fill="#2B4D66" id="Path">
                        <path d="M13.7361447,2.17736752 L1.17345395,2.17736752 C0.527486842,2.17736752 0.00393421053,1.70420513 0.00393421053,1.12041026 C0.00393421053,0.536615385 0.527486842,0.0634529915 1.17345395,0.0634529915 L13.7361447,0.0634529915 C14.3821118,0.0634529915 14.9056645,0.536615385 14.9056645,1.12041026 C14.9056645,1.70406838 14.3821118,2.17736752 13.7361447,2.17736752 Z"></path>
                        <path d="M8.51741447,6.28964103 L1.17345395,6.28964103 C0.527486842,6.28964103 0.00393421053,5.81647863 0.00393421053,5.23268376 C0.00393421053,4.64888889 0.527486842,4.1757265 1.17345395,4.1757265 L8.51741447,4.1757265 C9.16338158,4.1757265 9.68693421,4.64888889 9.68693421,5.23268376 C9.68693421,5.81647863 9.16338158,6.28964103 8.51741447,6.28964103 Z"></path>
                    </g>
                </g>
                <g id="Group" transform="translate(54.000000, 54.000000)">
                    <path d="M13.7227636,11.7364235 C9.90967273,11.9744471 6.09658182,11.9744471 2.28349091,11.7364235 C1.22094545,11.6700706 0.368727273,10.8669176 0.264872727,9.83844706 C0.00625454545,7.27708235 0.00625454545,4.71571765 0.264872727,2.15435294 C0.368727273,1.12588235 1.22094545,0.322729412 2.28349091,0.256376471 C6.09658182,0.0183529412 9.90967273,0.0183529412 13.7227636,0.256376471 C14.7853091,0.322729412 15.6375273,1.12588235 15.7413818,2.15435294 C16,4.71571765 16,7.27708235 15.7413818,9.83844706 C15.6375273,10.8667765 14.7853091,11.6700706 13.7227636,11.7364235 Z" id="Path" fill="#E7A561"></path>
                    <g transform="translate(3.345455, 2.682353)" fill="#2B4D66" id="Path">
                        <path d="M8.18749091,2.2824 L1.128,2.2824 C0.507054545,2.2824 0.00378181818,1.79392941 0.00378181818,1.19124706 C0.00378181818,0.588564706 0.507054545,0.100094118 1.128,0.100094118 L8.18749091,0.100094118 C8.80843636,0.100094118 9.31170909,0.588564706 9.31170909,1.19124706 C9.31170909,1.79392941 8.80843636,2.2824 8.18749091,2.2824 Z"></path>
                        <path d="M5.25469091,6.52785882 L1.128,6.52785882 C0.507054545,6.52785882 0.00378181818,6.03938824 0.00378181818,5.43670588 C0.00378181818,4.83402353 0.507054545,4.34555294 1.128,4.34555294 L5.25469091,4.34555294 C5.87563636,4.34555294 6.37890909,4.83402353 6.37890909,5.43670588 C6.37890909,6.03924706 5.87563636,6.52785882 5.25469091,6.52785882 Z"></path>
                    </g>
                </g>
                <g id="Group" transform="translate(0.000000, 53.000000)">
                    <path d="M21.4899123,17.7302727 C15.4972222,18.0898636 9.50467836,18.0898636 3.5119883,17.7302727 C1.84210526,17.6300455 0.502777778,16.4169545 0.339619883,14.8637727 C-0.0668128655,10.9954091 -0.0668128655,7.12704545 0.339619883,3.25868182 C0.502777778,1.70536364 1.84225146,0.492272727 3.5119883,0.392181818 C9.50467836,0.0325909091 15.4972222,0.0325909091 21.4899123,0.392181818 C23.1597953,0.492409091 24.4991228,1.70536364 24.6622807,3.25868182 C25.0687135,7.12704545 25.0687135,10.9954091 24.6622807,14.8637727 C24.4991228,16.4170909 23.1597953,17.6301818 21.4899123,17.7302727 Z" id="Path" fill="#9DC6FB"></path>
                    <g transform="translate(5.263158, 3.681818)" fill="#2B4D66" id="Path">
                        <path d="M13.3068713,6.43336364 L1.16885965,6.43336364 C0.544736842,6.43336364 0.0388888889,5.96154545 0.0388888889,5.37940909 C0.0388888889,4.79727273 0.544736842,4.32545455 1.16885965,4.32545455 L13.3068713,4.32545455 C13.9309942,4.32545455 14.4368421,4.79727273 14.4368421,5.37940909 C14.4368421,5.96140909 13.9309942,6.43336364 13.3068713,6.43336364 Z"></path>
                        <path d="M13.3068713,2.19163636 L1.16885965,2.19163636 C0.544736842,2.19163636 0.0388888889,1.71981818 0.0388888889,1.13768182 C0.0388888889,0.555545455 0.544736842,0.0837272727 1.16885965,0.0837272727 L13.3068713,0.0837272727 C13.9309942,0.0837272727 14.4368421,0.555545455 14.4368421,1.13768182 C14.4368421,1.71981818 13.9309942,2.19163636 13.3068713,2.19163636 Z"></path>
                        <path d="M8.26432749,10.6750909 L1.16885965,10.6750909 C0.544736842,10.6750909 0.0388888889,10.2032727 0.0388888889,9.62113636 C0.0388888889,9.039 0.544736842,8.56718182 1.16885965,8.56718182 L8.26447368,8.56718182 C8.88859649,8.56718182 9.39444444,9.039 9.39444444,9.62113636 C9.39429825,10.2031364 8.88845029,10.6750909 8.26432749,10.6750909 Z"></path>
                    </g>
                </g>
                <g id="Group" transform="translate(18.000000, 17.000000)">
                    <ellipse id="Oval" fill="#D3EFFB" cx="19.973633" cy="18.5378315" rx="18.7886142" ry="17.3794682"></ellipse>
                    <path d="M23.2566292,35.6655056 C22.2161798,35.8323521 21.1454682,35.9178539 20.0540824,35.9178539 C9.67730337,35.9178539 1.26486891,28.1363521 1.26486891,18.5378315 C1.26486891,8.93931086 9.67730337,1.15780899 20.0540824,1.15780899 C21.1454682,1.15780899 22.2161798,1.24344944 23.2566292,1.4101573 C14.4068914,2.81532584 7.67146067,9.9488427 7.67146067,18.5378315 C7.67146067,27.1268202 14.4068914,34.2603371 23.2566292,35.6655056 Z" id="Path" fill="#9DC6FB"></path>
                    <path d="M19.973633,20.7518727 L11.2444944,20.7518727 C9.92254682,20.7518727 8.85093633,19.760633 8.85093633,18.5378315 C8.85093633,17.31503 9.92254682,16.3237903 11.2444944,16.3237903 L19.973633,16.3237903 C21.2955805,16.3237903 19.973633,17.31503 19.973633,18.5378315 L19.973633,20.7518727 Z" id="Path" fill="#365E7D"></path>
                    <path d="M19.973633,20.7518727 C18.6516854,20.7518727 17.5800749,19.760633 17.5800749,18.5378315 L17.5800749,12.8844532 C17.5800749,11.6616517 18.6516854,10.670412 19.973633,10.670412 C21.2955805,10.670412 22.367191,11.6616517 22.367191,12.8844532 L22.367191,18.5378315 C22.367191,19.760633 21.2955805,20.7518727 19.973633,20.7518727 Z" id="Path" fill="#2B4D66"></path>
                    <g transform="translate(0.599251, 0.554307)" fill="#365E7D" id="Path">
                        <g transform="translate(18.127341, 0.000000)">
                            <path d="M1.24719101,5.71462921 C0.614831461,5.71462921 0.102322097,5.24041948 0.102322097,4.65562547 L0.102322097,1.15212734 C0.102322097,0.567194757 0.614831461,0.0931235955 1.24719101,0.0931235955 C1.87955056,0.0931235955 2.39205993,0.567333333 2.39205993,1.15212734 L2.39205993,4.65562547 C2.39205993,5.24041948 1.87955056,5.71462921 1.24719101,5.71462921 Z"></path>
                            <path d="M1.24719101,35.8742022 C0.614831461,35.8742022 0.102322097,35.3999925 0.102322097,34.8151985 L0.102322097,31.3115618 C0.102322097,30.7266292 0.614831461,30.2525581 1.24719101,30.2525581 C1.87955056,30.2525581 2.39205993,30.7267678 2.39205993,31.3115618 L2.39205993,34.8151985 C2.39205993,35.4001311 1.87955056,35.8742022 1.24719101,35.8742022 Z"></path>
                        </g>
                        <g transform="translate(0.000000, 16.906367)">
                            <path d="M37.5707865,2.13629963 L33.7830712,2.13629963 C33.1507116,2.13629963 32.6382022,1.66208989 32.6382022,1.07729588 C32.6382022,0.492363296 33.1507116,0.0182921348 33.7830712,0.0182921348 L37.5707865,0.0182921348 C38.2031461,0.0182921348 38.7156554,0.492501873 38.7156554,1.07729588 C38.7156554,1.66208989 38.2031461,2.13629963 37.5707865,2.13629963 Z"></path>
                            <path d="M4.9658427,2.13629963 L1.17812734,2.13629963 C0.54576779,2.13629963 0.033258427,1.66208989 0.033258427,1.07729588 C0.033258427,0.492363296 0.545917603,0.0182921348 1.17812734,0.0182921348 L4.9658427,0.0182921348 C5.59820225,0.0182921348 6.11071161,0.492501873 6.11071161,1.07729588 C6.11071161,1.66208989 5.59820225,2.13629963 4.9658427,2.13629963 Z"></path>
                        </g>
                        <g transform="translate(2.397004, 8.453184)">
                            <path d="M30.8007491,3.20777528 C30.4050936,3.20777528 30.0202247,3.01778652 29.8082397,2.67799625 C29.491985,2.17149813 29.6797004,1.52379026 30.2272659,1.23125468 L32.1634457,0.197194757 C32.7107116,-0.0952022472 33.4113858,0.0782958801 33.7274906,0.584932584 C34.0437453,1.09143071 33.85603,1.73913858 33.3084644,2.03167416 L31.3722846,3.06573408 C31.1919101,3.16204494 30.9950562,3.20777528 30.8007491,3.20777528 Z"></path>
                            <path d="M1.22007491,19.0053895 C0.824419476,19.0053895 0.439700375,18.8154007 0.227565543,18.4757491 C-0.0886891386,17.9692509 0.0990262172,17.3215431 0.64659176,17.0290075 L2.58262172,15.9949476 C3.13003745,15.7025506 3.83026217,15.8759101 4.14666667,16.3825468 C4.46292135,16.8890449 4.27520599,17.5367528 3.72764045,17.8292884 L1.79161049,18.8633483 C1.61123596,18.9596592 1.41423221,19.0053895 1.22007491,19.0053895 Z"></path>
                        </g>
                        <g transform="translate(8.988764, 2.217228)">
                            <path d="M18.3649438,4.03992884 C18.1706367,4.03992884 17.9737828,3.9941985 17.7935581,3.89788764 C17.2459925,3.60535206 17.0582772,2.95764419 17.3745318,2.45114607 L18.4924345,0.660179775 C18.8086891,0.153543071 19.5089139,-0.0198164794 20.0564794,0.272580524 C20.6040449,0.565116105 20.7917603,1.21282397 20.4755056,1.7193221 L19.357603,3.51028839 C19.1453184,3.84994007 18.7605993,4.03992884 18.3649438,4.03992884 Z"></path>
                            <path d="M1.28644195,31.402191 C1.09213483,31.402191 0.895430712,31.3564607 0.71505618,31.2601498 C0.167490637,30.9677528 -0.0202247191,30.3200449 0.296029963,29.8134082 L1.41378277,28.0224419 C1.72988764,27.5158052 2.42996255,27.3421685 2.97782772,27.6348427 C3.52539326,27.9272397 3.71310861,28.5749476 3.39685393,29.0815843 L2.27910112,30.8725506 C2.0671161,31.2122022 1.68209738,31.402191 1.28644195,31.402191 Z"></path>
                        </g>
                        <g transform="translate(8.988764, 2.217228)">
                            <path d="M2.40644195,4.03992884 C2.01078652,4.03992884 1.6259176,3.84994007 1.41393258,3.51014981 L0.296179775,1.71918352 C-0.0200749064,1.21268539 0.167640449,0.564977528 0.715205993,0.272441948 C1.26262172,-0.0198164794 1.96314607,0.153543071 2.27925094,0.660179775 L3.39700375,2.45114607 C3.71325843,2.95764419 3.52554307,3.60535206 2.97797753,3.89788764 C2.797603,3.9941985 2.60059925,4.03992884 2.40644195,4.03992884 Z"></path>
                            <path d="M19.4849438,31.402191 C19.0892884,31.402191 18.7045693,31.2122022 18.4924345,30.8725506 L17.3745318,29.0815843 C17.0582772,28.5750861 17.2458427,27.9273783 17.7935581,27.6348427 C18.3409738,27.3424457 19.0411985,27.5158052 19.357603,28.0224419 L20.4755056,29.8134082 C20.7917603,30.3199064 20.6041948,30.9676142 20.0564794,31.2601498 C19.8761049,31.3563221 19.6792509,31.402191 19.4849438,31.402191 Z"></path>
                        </g>
                        <g transform="translate(2.397004, 8.453184)">
                            <path d="M3.15400749,3.20777528 C2.95970037,3.20777528 2.76284644,3.16204494 2.58262172,3.06573408 L0.64659176,2.03167416 C0.0990262172,1.73927715 -0.0886891386,1.09156929 0.227565543,0.584932584 C0.543670412,0.0782958801 1.24419476,-0.0952022472 1.79161049,0.197333333 L3.72764045,1.23139326 C4.27520599,1.52379026 4.46292135,2.17149813 4.14666667,2.67813483 C3.93468165,3.01778652 3.54966292,3.20777528 3.15400749,3.20777528 Z"></path>
                            <path d="M32.7349813,19.0053895 C32.5406742,19.0053895 32.34397,18.9596592 32.1635955,18.8633483 L30.2274157,17.8292884 C29.6798502,17.5368914 29.4921348,16.8891835 29.8083895,16.3825468 C30.1244944,15.8759101 30.8245693,15.702412 31.3724345,15.994809 L33.3086142,17.0288689 C33.8561798,17.3212659 34.0438951,17.9689738 33.7276404,18.4756105 C33.5155056,18.8154007 33.1306367,19.0053895 32.7349813,19.0053895 Z"></path>
                        </g>
                    </g>
                    <path d="M19.9737828,36.9764419 C8.9823221,36.9764419 0.0401498127,28.7049326 0.0401498127,18.5378315 C0.0401498127,8.37073034 8.9823221,0.0992209738 19.9737828,0.0992209738 C30.9652434,0.0992209738 39.9074157,8.37073034 39.9074157,18.5378315 C39.9074157,28.7049326 30.9652434,36.9764419 19.9737828,36.9764419 Z M19.9737828,2.21736704 C10.2449438,2.21736704 2.33003745,9.53865543 2.33003745,18.5378315 C2.33003745,27.5370075 10.2449438,34.8582959 19.9737828,34.8582959 C29.7026217,34.8582959 37.6175281,27.5370075 37.6175281,18.5378315 C37.6175281,9.53879401 29.7026217,2.21736704 19.9737828,2.21736704 Z" id="Shape" fill="#2B4D66" fill-rule="nonzero"></path>
                </g>
            </g>
        </g>
    </g>
</svg>